:SAMPLES-PER-SECOND 30
:FULLY-SPECIFIED
:DEGREES
223
root  -42.0793 30.0622 45.5132 -148.457 72.7974 -175.215
RightUpLeg  -52.9398 -8.5709 -4.86755
RightLeg  54.5845 4.67231 5.66387
RightFoot  -14.4851 -0.244935 -1.54969
RightToes  -42.1478 -0.235864 -0.326931
Spine  15.2878 -1.21213 2.97938
Spine1  25.2342 -4.37905 6.51326
HEad  2.92639 10.059 -10.0678
LeftShoulder1  0 -2.42657e-020 -4.95415e-022
LeftArm  -34.6879 -21.5002 -88.9532
LeftForeArm  42.2122 -19.5582 -3.57178
LeftHand  0.0821101 -8.12243 -1.52768
RightShoulder  0 2.42657e-020 1.07489e-018
RightArm  -45.7083 18.6333 79.4863
RightForeArm  16.7456 50.8784 12.5502
RightHand  0.195813 21.3162 1.41088
LeftUpLeg  -49.1419 9.49454 7.01547
LeftLeg  75.8458 2.47274 7.61585
LeftFoot  -5.47818 -0.0867377 -1.81284
LeftToes  -23.5139 8.63562e-007 1.17448e-007
224
root  -40.7606 30.9841 45.2971 -146.445 74.2621 -172.805
RightUpLeg  -46.8542 -7.5574 -5.10835
RightLeg  47.7167 8.06433 7.68842
RightFoot  -12.2538 -0.265866 -2.09895
RightToes  -44.359 -0.254207 -0.338398
Spine  14.2966 -1.89685 2.12258
Spine1  24.1262 -5.74337 6.06294
HEad  2.81504 12.1543 -10.8172
LeftShoulder1  0 -2.42657e-020 -4.95415e-022
LeftArm  -38.4536 -17.2278 -87.236
LeftForeArm  40.1511 -19.4268 -3.54825
LeftHand  0.0652662 -7.44676 -1.37412
RightShoulder  0 2.42657e-020 1.07489e-018
RightArm  -43.5707 8.9512 83.1573
RightForeArm  26.1264 66.0935 23.5774
RightHand  -0.580903 21.911 -2.631
LeftUpLeg  -53.0008 12.5143 4.10025
LeftLeg  70.0346 2.53822 5.75941
LeftFoot  -5.57623 -0.0642239 -1.31871
LeftToes  -25.709 8.63562e-007 1.17448e-007
225
root  -39.4234 31.4618 45.0787 -147.474 76.3682 -173.635
RightUpLeg  -42.2637 -4.45884 -7.79278
RightLeg  44.1257 11.5494 9.66054
RightFoot  -11.7631 -0.320835 -2.73633
RightToes  -46.5752 -0.273022 -0.349173
Spine  14.0072 -1.65047 1.14307
Spine1  24.3268 -4.51149 3.88571
HEad  2.26396 13.2869 -11.0575
LeftShoulder1  0 -2.42657e-020 -4.95415e-022
LeftArm  -40.6202 -15.0572 -85.763
LeftForeArm  39.1223 -19.3905 -3.54224
LeftHand  0.0652193 -7.06386 -1.42798
RightShoulder  0 2.42657e-020 1.07489e-018
RightArm  -41.0319 -1.23993 85.9755
RightForeArm  79.4272 79.1918 68.9542
RightHand  -2.90592 22.7888 -13.9805
LeftUpLeg  -56.7189 15.099 1.87279
LeftLeg  61.9268 1.65033 2.6528
LeftFoot  -5.47569 -0.0349266 -0.730362
LeftToes  -29.5489 8.63562e-007 1.17448e-007
226
root  -37.8578 31.5051 44.8913 -148.675 75.9831 -173.473
RightUpLeg  -36.3262 -4.53553 -7.92746
RightLeg  41.7279 11.0502 8.51006
RightFoot  -13.0668 -0.356649 -2.73597
RightToes  -47.5723 -0.281621 -0.353782
Spine  14.0538 -1.85461 1.02403
Spine1  24.9742 -4.02364 2.56181
HEad  2.47121 14.8922 -11.2811
LeftShoulder1  0 -2.42657e-020 -4.95415e-022
LeftArm  -42.9003 -12.7476 -85.0997
LeftForeArm  37.9566 -20.1734 -3.69948
LeftHand  0.106723 -6.58833 -2.22634
RightShoulder  0 2.42657e-020 1.07489e-018
RightArm  -37.288 -8.65133 85.8577
RightForeArm  154.917 76.4634 132.025
RightHand  -4.59198 22.0298 -22.9143
LeftUpLeg  -59.2533 15.4888 2.56482
LeftLeg  53.2323 0.848844 0.987209
LeftFoot  -6.07813 -0.0209149 -0.393947
LeftToes  -28.6077 8.63562e-007 1.17448e-007
227
root  -36.3684 31.1338 44.6393 -148.64 76.9973 -171.652
RightUpLeg  -31.8508 -7.7073 -7.04089
RightLeg  41.5787 10.8245 8.29625
RightFoot  -16.1008 -0.523959 -3.32585
RightToes  -46.7082 -0.274165 -0.349796
Spine  14.1734 -1.60508 0.685938
Spine1  25.714 -2.54601 0.610465
HEad  2.79577 16.8303 -11.7476
LeftShoulder1  0 -2.42657e-020 -4.95415e-022
LeftArm  -43.2172 -10.434 -84.2599
LeftForeArm  34.9976 -21.3399 -3.93779
LeftHand  0.123346 -6.15503 -2.66684
RightShoulder  0 2.42657e-020 1.07489e-018
RightArm  -35.7635 -10.3537 84.9184
RightForeArm  174.779 71.4933 147.624
RightHand  -5.54151 22.6631 -26.792
LeftUpLeg  -61.4155 17.1547 3.12451
LeftLeg  44.9125 1.10596 0.962803
LeftFoot  -5.181 -0.0136074 -0.300767
LeftToes  -28.129 8.63562e-007 1.17448e-007
228
root  -34.9104 30.418 44.3104 -144.527 79.0261 -165.602
RightUpLeg  -28.5163 -11.2084 -5.92681
RightLeg  43.0379 9.35853 7.57177
RightFoot  -20.4119 -0.733572 -3.69551
RightToes  -45.4321 -0.263265 -0.343706
Spine  14.122 -0.903239 0.312704
Spine1  25.8913 -0.180928 -1.45735
HEad  3.9052 19.1908 -12.526
LeftShoulder1  0 -2.42657e-020 -4.95415e-022
LeftArm  -42.2482 -7.85883 -83.4992
LeftForeArm  31.3214 -22.3639 -4.15051
LeftHand  0.184546 -5.49195 -4.22152
RightShoulder  0 2.42657e-020 1.07489e-018
RightArm  -32.4618 -8.64758 82.7157
RightForeArm  -177.455 70.2671 150.023
RightHand  -5.44129 22.5185 -26.4874
LeftUpLeg  -63.3612 20.1063 3.33338
LeftLeg  37.3538 0.619652 0.407935
LeftFoot  -2.9307 -0.00378606 -0.148013
LeftToes  -29.062 8.63562e-007 1.17448e-007
